<svg viewBox="0 0 256 256" xmlns="http://www.w3.org/2000/svg"><line x1="183.2" y1="183.2" x2="198.7" y2="198.7" stroke="#0A1428" stroke-width="7" stroke-linecap="round"/><line x1="177.9" y1="193.1" x2="185.2" y2="202.6" stroke="#9AA8C4" stroke-width="4" stroke-linecap="round"/><line x1="169.0" y1="199.0" x2="175.0" y2="209.4" stroke="#9AA8C4" stroke-width="4" stroke-linecap="round"/><line x1="159.4" y1="203.8" x2="164.0" y2="214.8" stroke="#9AA8C4" stroke-width="4" stroke-linecap="round"/><line x1="149.2" y1="207.2" x2="152.3" y2="218.8" stroke="#9AA8C4" stroke-width="4" stroke-linecap="round"/><line x1="138.7" y1="209.3" x2="140.3" y2="221.2" stroke="#9AA8C4" stroke-width="4" stroke-linecap="round"/><line x1="128.0" y1="206.0" x2="128.0" y2="228.0" stroke="#0A1428" stroke-width="7" stroke-linecap="round"/><line x1="117.3" y1="209.3" x2="115.7" y2="221.2" stroke="#9AA8C4" stroke-width="4" stroke-linecap="round"/><line x1="106.8" y1="207.2" x2="103.7" y2="218.8" stroke="#9AA8C4" stroke-width="4" stroke-linecap="round"/><line x1="96.6" y1="203.8" x2="92.0" y2="214.8" stroke="#9AA8C4" stroke-width="4" stroke-linecap="round"/><line x1="87.0" y1="199.0" x2="81.0" y2="209.4" stroke="#9AA8C4" stroke-width="4" stroke-linecap="round"/><line x1="78.1" y1="193.1" x2="70.8" y2="202.6" stroke="#9AA8C4" stroke-width="4" stroke-linecap="round"/><line x1="72.8" y1="183.2" x2="57.3" y2="198.7" stroke="#0A1428" stroke-width="7" stroke-linecap="round"/><line x1="62.9" y1="177.9" x2="53.4" y2="185.2" stroke="#9AA8C4" stroke-width="4" stroke-linecap="round"/><line x1="57.0" y1="169.0" x2="46.6" y2="175.0" stroke="#9AA8C4" stroke-width="4" stroke-linecap="round"/><line x1="52.2" y1="159.4" x2="41.2" y2="164.0" stroke="#9AA8C4" stroke-width="4" stroke-linecap="round"/><line x1="48.8" y1="149.2" x2="37.2" y2="152.3" stroke="#9AA8C4" stroke-width="4" stroke-linecap="round"/><line x1="46.7" y1="138.7" x2="34.8" y2="140.3" stroke="#9AA8C4" stroke-width="4" stroke-linecap="round"/><line x1="50.0" y1="128.0" x2="28.0" y2="128.0" stroke="#0A1428" stroke-width="7" stroke-linecap="round"/><line x1="46.7" y1="117.3" x2="34.8" y2="115.7" stroke="#9AA8C4" stroke-width="4" stroke-linecap="round"/><line x1="48.8" y1="106.8" x2="37.2" y2="103.7" stroke="#9AA8C4" stroke-width="4" stroke-linecap="round"/><line x1="52.2" y1="96.6" x2="41.2" y2="92.0" stroke="#9AA8C4" stroke-width="4" stroke-linecap="round"/><line x1="57.0" y1="87.0" x2="46.6" y2="81.0" stroke="#9AA8C4" stroke-width="4" stroke-linecap="round"/><line x1="62.9" y1="78.1" x2="53.4" y2="70.8" stroke="#9AA8C4" stroke-width="4" stroke-linecap="round"/><line x1="72.8" y1="72.8" x2="57.3" y2="57.3" stroke="#0A1428" stroke-width="7" stroke-linecap="round"/><line x1="78.1" y1="62.9" x2="70.8" y2="53.4" stroke="#9AA8C4" stroke-width="4" stroke-linecap="round"/><line x1="87.0" y1="57.0" x2="81.0" y2="46.6" stroke="#9AA8C4" stroke-width="4" stroke-linecap="round"/><line x1="96.6" y1="52.2" x2="92.0" y2="41.2" stroke="#9AA8C4" stroke-width="4" stroke-linecap="round"/><line x1="106.8" y1="48.8" x2="103.7" y2="37.2" stroke="#9AA8C4" stroke-width="4" stroke-linecap="round"/><line x1="117.3" y1="46.7" x2="115.7" y2="34.8" stroke="#9AA8C4" stroke-width="4" stroke-linecap="round"/><line x1="128.0" y1="50.0" x2="128.0" y2="28.0" stroke="#0A1428" stroke-width="7" stroke-linecap="round"/><line x1="138.7" y1="46.7" x2="140.3" y2="34.8" stroke="#9AA8C4" stroke-width="4" stroke-linecap="round"/><line x1="149.2" y1="48.8" x2="152.3" y2="37.2" stroke="#9AA8C4" stroke-width="4" stroke-linecap="round"/><line x1="159.4" y1="52.2" x2="164.0" y2="41.2" stroke="#9AA8C4" stroke-width="4" stroke-linecap="round"/><line x1="169.0" y1="57.0" x2="175.0" y2="46.6" stroke="#9AA8C4" stroke-width="4" stroke-linecap="round"/><line x1="177.9" y1="62.9" x2="185.2" y2="53.4" stroke="#9AA8C4" stroke-width="4" stroke-linecap="round"/><line x1="183.2" y1="72.8" x2="198.7" y2="57.3" stroke="#0A1428" stroke-width="7" stroke-linecap="round"/><line x1="64.2" y1="110.9" x2="23.7" y2="100.0" stroke="#6D5EF0" stroke-width="9" stroke-linecap="round"/></svg>